<svg id="Layer_1" data-name="Layer 1" xmlns="http://www.w3.org/2000/svg" viewBox="0 0 47.2 35.36"><defs><style>.cls-1{fill:#fff;fill-rule:evenodd;}</style></defs><title>01</title><path class="cls-1" d="M431.17,268.42a4.92,4.92,0,1,1-3.48,1.44,4.9,4.9,0,0,1,3.48-1.44Zm10.06-16.52H426.57v12.9h14.66V251.9Zm15.39,5.82h-9.77v5h13.84l0,.05v7h-.8a2.14,2.14,0,0,0,0,4.27h2.94a2.14,2.14,0,0,0,2.13-2.13V262a2.13,2.13,0,0,0-.48-1.35l-7-8.53a2.14,2.14,0,0,0-1.7-.84h-5.78V245a2.13,2.13,0,0,0-2.13-2.13h-28A2.13,2.13,0,0,0,417.8,245v27.24a2.14,2.14,0,0,0,2.14,2.13h3.15a2.14,2.14,0,1,0,0-4.27h-1v-23h23.71v6.24a2.14,2.14,0,0,0,2.14,2.14h6.9l1.8,2.18ZM438.85,274.4a2.14,2.14,0,0,1,0-4.27h5.7a2.14,2.14,0,1,1,0,4.27Zm13.44-6a4.92,4.92,0,1,1-3.48,1.44,4.9,4.9,0,0,1,3.48-1.44Zm.44,4.48a.63.63,0,1,1-.44-.18.63.63,0,0,1,.44.18Zm-21.12,0a.63.63,0,0,0-.44-.18.6.6,0,0,0-.43.18.6.6,0,0,0,0,.88.6.6,0,0,0,.43.18.62.62,0,0,0,.44-1.06Z" transform="translate(-417.8 -242.9)"/></svg>